<?xml version="1.0"?>
<svg xmlns="http://www.w3.org/2000/svg" height="512px" viewBox="0 -74 512 512" width="512px"><g><path d="m336.382812 289.878906h57.472657c4.144531 0 7.5-3.359375 7.5-7.5 0-4.144531-3.355469-7.5-7.5-7.5h-57.472657c-4.140624 0-7.5 3.355469-7.5 7.5 0 4.140625 3.359376 7.5 7.5 7.5zm0 0" data-original="#000000" class="active-path" data-old_color="#000000" fill="#F2F2F2"/><path d="m381.863281 296.171875h-33.484375c-4.144531 0-7.5 3.355469-7.5 7.5s3.355469 7.5 7.5 7.5h33.484375c4.144531 0 7.5-3.355469 7.5-7.5s-3.355469-7.5-7.5-7.5zm0 0" data-original="#000000" class="active-path" data-old_color="#000000" fill="#F2F2F2"/><path d="m512 143.789062c0-7.15625-4.105469-13.691406-10.90625-17.953124 2.054688-8.035157.351562-15.808594-4.957031-21.058594-3.707031-3.664063-8.886719-5.679688-14.589844-5.679688-1.945313 0-3.9375.226563-5.929687.679688-1.429688-2.386719-3.140626-4.445313-5.054688-6.144532.835938-2.09375 1.296875-4.316406 1.296875-6.609374 0-6.882813-3.933594-13.085938-10.464844-17.078126 1.476563-7.15625-.226562-14.019531-4.953125-18.699218-3.507812-3.464844-8.402344-5.371094-13.78125-5.371094-1.902344 0-3.847656.234375-5.789062.691406-4.046875-6.113281-10.144532-9.789062-16.808594-9.789062-6.921875 0-13.167969 3.898437-17.195312 10.367187-1.714844-.355469-3.425782-.539062-5.097657-.539062-5.382812 0-10.273437 1.910156-13.777343 5.375-4.921876 4.863281-6.570313 12-4.816407 19.398437-6.160156 4.011719-9.863281 10.0625-9.863281 16.683594 0 2.4375.503906 4.785156 1.429688 6.984375-1.589844 1.472656-3.027344 3.203125-4.25 5.1875-1.773438-.378906-3.546876-.570313-5.28125-.570313-5.449219 0-10.402344 1.933594-13.953126 5.441407-5.003906 4.945312-6.667968 12.222656-4.847656 19.757812-6.300781 4.066407-10.089844 10.222657-10.089844 16.960938 0 7.003906 4.027344 13.3125 10.699219 17.359375-1.542969 7.289062.179688 14.289062 4.992188 19.042968 3.550781 3.515626 8.507812 5.449219 13.960937 5.449219 1.964844 0 3.972656-.246093 5.976563-.726562 4.105469 6.25 10.308593 10.011719 17.089843 10.011719 5.355469 0 10.308594-2.3125 14.171876-6.320313l2.9375 15.039063c-4.320313 1.71875-7.703126 5.667968-8.421876 10.382812l-6.125 40.097656h-72.984374c-6.605469 0-11.976563 5.382813-11.976563 11.996094v40.417969l-4.980469-3.566407v-50.945312c14.050782-3.398438 24.523438-16.117188 24.523438-31.25v-13.359375h3.820312c4.140625 0 7.5-3.355469 7.5-7.5 0-4.140625-3.359375-7.5-7.5-7.5h-8.882812v-46.4375c0-4.144531-3.355469-7.5-7.5-7.5-4.144532 0-7.5 3.355469-7.5 7.5v46.4375h-23.921875v-112.191406h23.921875v30.753906c0 4.140625 3.355468 7.5 7.5 7.5 4.144531 0 7.5-3.359375 7.5-7.5v-35.253906c0-5.789063-4.710938-10.5-10.5-10.5h-3.160156c6.570312-4.351563 10.914062-11.820313 10.914062-20.289063 0-3.742187-.828125-7.335937-2.460938-10.683594-.050781-.101562-.058593-.117187-.113281-.21875-.035156-.066406-.085937-.160156-.132812-.246093l-13.347657-23.851563c-1.652343-2.953125-4.78125-4.789062-8.160156-4.789062-3.382812 0-6.511718 1.835937-8.164062 4.789062l-13.332032 23.820313c-.101562.183593-.195312.367187-.285156.554687-1.617187 3.332032-2.433594 6.90625-2.433594 10.621094 0 8.472656 4.34375 15.941406 10.914063 20.292969h-3.160156c-5.792969 0-10.5 4.707031-10.5 10.5v116.6875h-8.882813c-4.144531 0-7.5 3.359375-7.5 7.5 0 4.144531 3.355469 7.5 7.5 7.5h3.820313v13.359375c0 15.132812 10.472656 27.851562 24.523437 31.25v50.945312l-30.644531 21.9375h-29.113281l-30.996094-20.753906v-26.582031c30.550781-3.878907 53.519531-31.207031 53.519531-65.417969 0-19.183594-7.488281-37.738281-21.078125-52.246094-1.996094-2.128906-4.8125-3.351562-7.730468-3.351562h-59.707032v-34.765625c0-20.824219-15.796875-38.019531-36.023437-40.230469v-67.09375c0-6.894531-5.605469-12.5-12.5-12.5h-22.933594c-6.894531 0-12.5 5.605469-12.5 12.5v67.097656c-20.226563 2.207032-36.023437 19.40625-36.023437 40.230469v203.117187h-24.429688c-6.894531 0-12.5 5.605469-12.5 12.5v16.085938c0 6.890625 5.605469 12.5 12.5 12.5h395.5c4.144531 0 7.5-3.359375 7.5-7.5 0-4.144531-3.355469-7.5-7.5-7.5h-393v-11.085938h470.554688v11.085938h-42.554688c-4.144531 0-7.5 3.355469-7.5 7.5 0 4.140625 3.355469 7.5 7.5 7.5h45.054688c6.894531 0 12.5-5.609375 12.5-12.5v-16.085938c0-6.894531-5.605469-12.5-12.5-12.5h-25.03125l-16.9375-110.882812c-.71875-4.714844-4.101563-8.664062-8.421876-10.382812l2.261719-11.574219c4.191407 5.050781 9.867188 8.007812 16.050781 8.007812 7.207032 0 13.789063-4.074219 18.089844-10.820312 2.234375.566406 4.472656.859375 6.664063.859375 5.703125 0 10.886719-2.019532 14.589843-5.683594 5.113282-5.050781 6.882813-12.539062 5.125-20.320312 7.199219-4.234376 11.554688-10.925782 11.554688-18.359376zm-230.171875-104.800781 8.332031-14.882812 8.339844 14.90625c.582031 1.238281.875 2.570312.875 3.960937 0 5.125-4.132812 9.296875-9.214844 9.296875-5.082031 0-9.214844-4.171875-9.214844-9.296875 0-1.398437.296876-2.738281.882813-3.984375zm-127.683594 130.605469h60.523438c7.71875 8.71875 12.785156 19.078125 14.789062 30.007812h-90.101562c2.003906-10.929687 7.070312-21.289062 14.789062-30.007812zm-66.191406-154.59375h17.9375v64.351562h-17.9375zm-36.023437 137.515625h18.070312c4.144531 0 7.5-3.359375 7.5-7.5 0-4.144531-3.355469-7.5-7.5-7.5h-18.070312v-17.6875c0-14.046875 11.410156-25.476563 25.4375-25.476563h39.109374c14.027344 0 25.433594 11.429688 25.433594 25.476563v17.6875h-35.910156c-4.144531 0-7.5 3.355469-7.5 7.5 0 4.140625 3.355469 7.5 7.5 7.5h35.910156v8.292969c-11.972656 14.046875-18.523437 31.4375-18.523437 49.382812 0 5.167969.511719 10.152344 1.457031 14.917969h-72.914062zm89.980468 170.429687h-89.980468v-82.835937h77.671874c3.101563 6.898437 7.269532 13.039063 12.3125 18.21875v64.617187zm-3.355468-108.34375h91.695312c-1.960938 26.40625-21.386719 46.5-45.84375 46.5-24.886719 0-43.957031-19.699218-45.851562-46.5zm18.355468 54.894532c6.097656 3.164062 12.820313 5.265625 19.996094 6.136718v26.558594l-19.996094 13.386719zm15.960938 53.449218 11.535156-7.726562 11.535156 7.726562zm100.265625-104.136718v-13.355469h34.046875v13.355469c0 9.457031-7.636719 17.152344-17.023438 17.152344-9.386718 0-17.023437-7.695313-17.023437-17.152344zm4.648437 104.136718 12.375-8.859374 12.371094 8.859374zm113.113282-240.632812c2.144531-.675781 3.871093-2.277344 4.707031-4.363281.835937-2.085938.691406-4.4375-.394531-6.402344-1.972657-3.589844-2.257813-7.332031-.675782-8.898437.871094-.859376 2.238282-1.039063 3.230469-1.039063 1.726563 0 3.742187.542969 5.679687 1.53125 1.984376 1.011719 4.3125 1.089844 6.359376.21875 2.042968-.875 3.597656-2.613281 4.234374-4.746094 1.1875-3.960937 3.71875-6.835937 6.023438-6.835937 2.246094 0 4.679688 2.671875 5.914062 6.5.6875 2.117187 2.273438 3.820312 4.335938 4.648437 2.066406.832031 4.390625.703125 6.351562-.351562 2.042969-1.09375 4.171876-1.699219 5.996094-1.699219.996094 0 2.363282.179688 3.234375 1.039062 1.539063 1.527344 1.332031 5.058594-.507812 8.59375-1.039063 1.988282-1.128907 4.339844-.25 6.402344.878906 2.066406 2.636719 3.628906 4.792969 4.261719 4.015624 1.175781 6.929687 3.636719 6.929687 5.855469 0 .433594-.121094.878906-.339844 1.324218-6.964843.21875-13.304687 4.242188-17.480469 10.796876-.261718-.0625-.519531-.113282-.78125-.171876 2.171876-3.292968 3.441407-7.214843 3.441407-11.433593 0-11.558594-9.472657-20.957031-21.113281-20.957031-11.644532 0-21.113282 9.398437-21.113282 20.957031 0 9.589843 6.527344 17.675781 15.398438 20.15625-1.015625 1.691406-1.769532 3.535156-2.242188 5.488281-.539062-.414062-1.128906-.765625-1.769531-1.023438-.902344-.363281-1.851563-.542968-2.800781-.542968-1.222656 0-2.445313.300781-3.546875.890625-2.042969 1.097656-4.175781 1.699219-6 1.699219-.992188 0-2.359375-.179688-3.238281-1.046876-1.515626-1.5-1.300782-5.105468.511718-8.574218 1.039063-1.992188 1.132813-4.34375.253906-6.410156-.878906-2.066407-2.636718-3.628907-4.792968-4.261719-4.015625-1.175781-6.933594-3.640625-6.933594-5.855469.003906-2.128906 2.773438-4.546875 6.585938-5.75zm35.800781 5.230469c0 3.285156-2.742188 5.960937-6.113281 5.960937-3.371094 0-6.113282-2.675781-6.113282-5.960937 0-3.285157 2.742188-5.957031 6.113282-5.957031 3.371093 0 6.113281 2.671874 6.113281 5.957031zm-10.265625 93.554687c.179687.191406.347656.382813.535156.566406 2.300781 2.273438 5.167969 3.910157 8.378906 4.828126l-2.785156 14.257812h-5.3125l-3.632812-18.605469c.976562-.273437 1.910156-.636719 2.816406-1.046875zm-10.832032-50.792968c-.757812.941406-1.429687 1.933593-2.003906 2.960937-.648437-1.507813-1.484375-2.90625-2.457031-4.203125 1.050781-.117188 2.105469-.292969 3.160156-.539062.414063.621093.847657 1.210937 1.300781 1.78125zm-21.097656 5.40625c3.164063 0 5.738282 2.503906 5.738282 5.582031 0 3.082031-2.574219 5.585937-5.738282 5.585937-3.160156 0-5.734375-2.503906-5.734375-5.585937 0-3.078125 2.574219-5.582031 5.734375-5.582031zm17.425782 30.632812c-1.984376-1.011719-4.3125-1.085938-6.355469-.210938-2.046875.871094-3.597657 2.609376-4.234375 4.742188-1.230469 4.105469-3.878906 7.085938-6.300782 7.085938-2.359374 0-4.902343-2.769532-6.1875-6.738282-.6875-2.117187-2.273437-3.820312-4.335937-4.648437-.898437-.363281-1.851563-.542969-2.800781-.542969-1.222656 0-2.441406.296875-3.542969.890625-2.109375 1.132813-4.3125 1.753906-6.199219 1.753906-1.042968 0-2.480468-.191406-3.414062-1.113281-1.621094-1.601562-1.417969-5.277344.492187-8.9375 1.039063-1.992188 1.132813-4.34375.253907-6.410156-.878907-2.066406-2.636719-3.628906-4.792969-4.261719-4.167969-1.21875-7.191407-3.796875-7.191407-6.128906 0-2.234375 2.875-4.765625 6.835938-6.015625 2.140625-.679688 3.867188-2.28125 4.703125-4.367188.835937-2.082031.691406-4.433594-.390625-6.402344-2.050781-3.722656-2.328125-7.621093-.664062-9.265624.925781-.917969 2.363281-1.109376 3.40625-1.109376 1.785156 0 3.867187.5625 5.867187 1.582032 1.984375 1.011718 4.3125 1.089844 6.359375.214844 2.042969-.871094 3.59375-2.609376 4.234375-4.742188.417969-1.394531 1.003906-2.65625 1.683594-3.71875-.421875 4.714844.574219 9.179688 2.941406 12.832031-10.402344 1.101563-18.53125 9.855469-18.53125 20.464844 0 11.351563 9.304687 20.585937 20.738281 20.585937 8.019532 0 14.976563-4.550781 18.421875-11.179687 1.792969 3.8125 4.835938 7.179687 8.847657 9.746094.058593.191406.097656.375.144531.5625-.472657 1.976562-.722657 3.929687-.746094 5.835937-.925781.890625-2.34375 1.082032-3.375 1.082032-1.78125-.003907-3.867187-.5625-5.867187-1.585938zm10.671874 156.601562h-94.960937v-55.785156h94.960937zm35.25 0h-20.25v-58.789062c0-6.613281-5.371093-11.996094-11.972656-11.996094h-12.855468l5.5625-36.40625h23.140624zm41.042969-172.054687c-2.15625.628906-3.914062 2.191406-4.796875 4.257813-.878906 2.066406-.785156 4.417968.253906 6.410156 2.160157 4.144531 2.335938 8.351562.425782 10.242187-1.128906 1.113281-2.824219 1.347657-4.046875 1.347657-2.113281 0-4.570313-.691407-6.910157-1.945313-1.960937-1.054687-4.285156-1.183594-6.347656-.351563-2.066406.832032-3.652344 2.535157-4.335937 4.652344-1.445313 4.480469-4.390625 7.609375-7.160157 7.609375-2.875 0-5.871093-3.289062-7.28125-7.996093-.636718-2.128907-2.1875-3.867188-4.230468-4.742188-.945313-.402344-1.949219-.605469-2.953125-.605469-1.167969 0-2.335938.273438-3.40625.820313-2.253907 1.148437-4.519531 1.757812-6.546875 1.757812-1.222656 0-2.917969-.234375-4.042969-1.351562-1.988281-1.964844-1.734375-6.320313.617187-10.601563 1.078126-1.964843 1.222657-4.316406.386719-6.402343-.835937-2.082032-2.5625-3.683594-4.703125-4.359376-4.542968-1.433593-7.714844-4.304687-7.714844-6.980468 0-2.738282 3.410157-5.726563 8.109376-7.101563 2.152343-.628906 3.910156-2.191406 4.792968-4.257812.878906-2.066407.785156-4.417969-.25-6.40625-2.160156-4.144531-2.335937-8.359375-.425781-10.246094 1.128906-1.113281 2.824219-1.351563 4.046875-1.351563 2.113281 0 4.566406.695313 6.90625 1.949219 1.960938 1.054688 4.285156 1.183594 6.347656.351563 2.0625-.832032 3.652344-2.535156 4.335938-4.648438 1.449218-4.480468 4.394531-7.613281 7.164062-7.613281 2.875 0 5.871094 3.289063 7.28125 8 .640625 2.128906 2.191406 3.867187 4.234375 4.742187 2.046875.871094 4.375.796876 6.355469-.214843 2.257812-1.152344 4.519531-1.757813 6.546875-1.757813 1.222656 0 2.917969.230469 4.042969 1.34375 1.988281 1.96875 1.734375 6.324219-.617188 10.601563-1.082031 1.96875-1.226562 4.316406-.390625 6.402343.835938 2.085938 2.5625 3.6875 4.703125 4.363282 4.542969 1.433594 7.714844 4.304687 7.714844 6.980468 0 2.785157-3.335938 5.703126-8.105469 7.101563zm0 0" data-original="#000000" class="active-path" data-old_color="#000000" fill="#F2F2F2"/><path d="m456.550781 120.980469c-12.359375 0-22.414062 9.976562-22.414062 22.242187 0 12.261719 10.054687 22.242188 22.414062 22.242188s22.414063-9.980469 22.414063-22.242188c0-12.265625-10.054688-22.242187-22.414063-22.242187zm0 29.484375c-4.085937 0-7.414062-3.25-7.414062-7.242188 0-3.992187 3.328125-7.242187 7.414062-7.242187 4.089844 0 7.414063 3.25 7.414063 7.242187 0 3.992188-3.324219 7.242188-7.414063 7.242188zm0 0" data-original="#000000" class="active-path" data-old_color="#000000" fill="#F2F2F2"/></g> </svg>
