<svg id="Слой_1" data-name="Слой 1" xmlns="http://www.w3.org/2000/svg" viewBox="0 0 300.27 301.65"><defs><style>.cls-1{fill:#fff7d9;stroke:#aaa;stroke-width:3px;}.cls-1,.cls-2{stroke-miterlimit:10;}.cls-2{fill:none;stroke:red;stroke-width:5px;}.cls-3{fill:#792727;}</style></defs><title>thumbnail</title><path class="cls-1" d="M144.2,145.86c0-.71.31-.65.5-1s.49-.31.76-.46a2,2,0,0,1,.42-.18,1.17,1.17,0,0,1,.43,0c.75,0,1.51-.07,2.26,0,2.46.1,4.92,0,7.37,0,5.14.06,11.24-.08,26.08-.07l21.12,0c1.36,0,1.46,0,1.88,0a6.34,6.34,0,0,0,.64,0,5.4,5.4,0,0,0,.74-.11c.69-.17,1-.7,2.13-1.67.19-.16.11-.08.56-.46.65-.52,1.22-1,1.56-1.31.77-.67,1.38-1.24,2-1.84,1.57-1.53,2.36-2.29,3.43-3.4,3-3.06,5-5.28,9.08-9.67.31-.34.85-.92,1.59-1.67,1.82-1.86,3.23-3.15,3.65-3.54,4.65-4.31,12-12.29,15.24-15.35.31-.29,2.29-2.13,2.94-2.94a11.08,11.08,0,0,1,.78-.85c.3-.31.45-.46.56-.49.6-.18,1.43.94,1.88,1.52.92,1.19,2.08,2.18,3.05,3.33.83,1,1.09,1.17,3.79,3.83,2.05,2,4.06,4.06,6.09,6.09,4.15,4.15,4.62,4.68,7.59,7.66,9.77,9.78,19.09,18.37,20,19.38.13.14.39.39.92.88a2.61,2.61,0,0,0,.64.5,2,2,0,0,0,.92.21c3.92.08,19.31-.1,19.31-.1h2.34c11.69,0,12.19-.05,18,0,6.16,0,17.17.07,18.28.07h1.49a1.22,1.22,0,0,1,.28,0,1.4,1.4,0,0,1,.63.26,1.52,1.52,0,0,1,.6.8,2.59,2.59,0,0,1,0,.64c0,.29,0,.58,0,.86-.06,1.81,0,6.23,0,6.23,0,2,0,6.4,0,15.27,0,2.4,0,3.06,0,8.26,0,4.16,0,6.69,0,10,0,9,.07,17,0,17.75a5.69,5.69,0,0,0,0,.77,3.63,3.63,0,0,0,0,.5,3.5,3.5,0,0,0,.25.84,3,3,0,0,0,.79,1c2.59,2.15,4.58,4.94,7.06,7.21a119.65,119.65,0,0,1,10.8,10.8c.34.41.92,1.11,1.79,2.08,2.41,2.68,4.39,4.51,5.46,5.5,2.62,2.43,4.54,4.28,7.75,7.37,0,0,4.18,4,7.94,7.94l.47.5a4.68,4.68,0,0,1,.35.37,2.13,2.13,0,0,1,.4.78c.17.67-.68,1.45-.85,1.61-1.71,1.6-6.52,6.52-13.41,13.58-1.32,1.36-1.37,1.51-3.57,3.78s-3.45,3.47-5.74,5.69c-4.54,4.43-8.7,8.58-11.22,11.13l-3.38,3.43c-.79.83-2.32,2.48-3.16,3.21a12.43,12.43,0,0,1-1.14,1,1.08,1.08,0,0,0-.38.38,1.25,1.25,0,0,0-.14.52c-.05,1.13-.07,1.69-.05,2,.06.69,0,1.37,0,2.06,0,1.41,0,2.13,0,4.11,0,1.06,0,1.36,0,6.85,0,7.62,0,6.6,0,8.39V353.5a5.22,5.22,0,0,1,0,.56,1.92,1.92,0,0,1,0,.43,1.17,1.17,0,0,1-.71.64,1.91,1.91,0,0,1-.71.09,10.56,10.56,0,0,1-1.2,0c-1.84-.21-14.91,0-14.91,0-16.78.24-37.55.26-38.57.26H296.9a5.22,5.22,0,0,0-2,0c-.23.07-.61.22-1.75,1.28-.86.8-1.24,1.26-2.08,2.12s-.89.86-1.7,1.66c-1.35,1.32-1.91,2-3,3.16-1.33,1.43-2.23,2.25-3.59,3.55l-8.83,8.69s-6.58,6.47-13.7,13.61c0,0-1.06,1.05-7.8,7.93-.76.78-1.14,1.17-1.18,1.23a1.64,1.64,0,0,1-.66.71,1.23,1.23,0,0,1-.71.09c-.54-.06-.9-.44-1.56-1.18l-1.09-1.22c-.38-.52-1.37-1.56-3.35-3.64-4-4.26-9.64-9.78-9.64-9.78s-12.5-12.35-17.81-17.91l-2.08-2.17-3.35-3.5-2.24-2.32c-1-1-.94-.94-1-1a2,2,0,0,0-.56-.57,1.8,1.8,0,0,0-1-.25c-3,0-5.91,0-8.87,0H196.1c-2.28,0-4,0-4.63,0l-6.71.07c-3.82.05-7.78.06-15.7.07,0,0-14.65,0-20.32.1l-1.54,0a3.75,3.75,0,0,1-1.15,0,1.89,1.89,0,0,1-1-.43,2.15,2.15,0,0,1-.57-1.18,3.09,3.09,0,0,1-.07-.64c0-2.53-.2-5.06-.07-7.58,0-.58,0-2.76.07-7.11,0-1.82,0-1.89,0-8.08V308.33c0-2.66,0-5.32,0-8a47,47,0,0,1-.05-4.89,2.59,2.59,0,0,0,0-.78,2.88,2.88,0,0,0-.38-.95,5.71,5.71,0,0,0-.75-1.11,75,75,0,0,0-7.49-7.84c-4.45-3.58-8.15-8-12.24-12-5.12-5-7.68-7.48-10.37-10.18-5.88-5.91-9.19-9.49-10-10.25-.34-.32-.62-.71-1-1a1.47,1.47,0,0,1-.45-.54,1.52,1.52,0,0,1-.09-.75,2.42,2.42,0,0,1,.71-1.35,28,28,0,0,1,2.57-2.48l1.28-1.06a75.37,75.37,0,0,0,6.59-6.67c.65-.7,2.66-2.69,6.68-6.68,2.2-2.18,2.76-2.72,4.77-4.7,4.63-4.56,8.21-8.18,10.82-10.82,6.79-6.86,7.37-7.59,7.82-8l1-1a1.7,1.7,0,0,0,.47-.71,1.35,1.35,0,0,0,0-.66c-.12-.7,0-1.42-.12-2.13-.19-1.62.11-2.46,0-6.09,0-.46,0-1,0-2.06,0-.88,0-1.59,0-2.07,0-4.29,0-7.78,0-7.78.06-8.65.06-8,.07-9.82,0-3.41,0-6.07,0-8.34,0-4.26,0-8.26,0-9.1,0-3.14-.05-5.93,0-9.92,0-.66,0-2.46,0-2.83" transform="translate(-100.13 -99.33)"/><path class="cls-2" d="M164.05,216.3l-8.65-8.79" transform="translate(-100.13 -99.33)"/><path class="cls-2" d="M155.31,208q.09-27.42.17-54.85" transform="translate(-100.13 -99.33)"/><path class="cls-2" d="M153.11,155.09l50.88.08" transform="translate(-100.13 -99.33)"/><path class="cls-2" d="M166.36,168.49l37.49-.07" transform="translate(-100.13 -99.33)"/><path class="cls-2" d="M168.63,201.09l.21-34.94" transform="translate(-100.13 -99.33)"/><path class="cls-2" d="M173.7,207.41l-5.54-7.86" transform="translate(-100.13 -99.33)"/><path class="cls-2" d="M213.09,152.43l36.85-36" transform="translate(-100.13 -99.33)"/><path class="cls-2" d="M284.14,149.69l-35.62-35.34" transform="translate(-100.13 -99.33)"/><path class="cls-2" d="M212.8,172.08q.19-10.44.38-20.88" transform="translate(-100.13 -99.33)"/><path class="cls-2" d="M226.79,172.36l.09-14.64" transform="translate(-100.13 -99.33)"/><path class="cls-2" d="M250,135l-23.45,24" transform="translate(-100.13 -99.33)"/><path class="cls-2" d="M274.6,159.56l-26.08-26.27" transform="translate(-100.13 -99.33)"/><path class="cls-2" d="M275.45,172.65l17.38-17.11" transform="translate(-100.13 -99.33)"/><path class="cls-2" d="M347.26,155.54l-55.75.48" transform="translate(-100.13 -99.33)"/><path class="cls-2" d="M344.09,204.11V153.75" transform="translate(-100.13 -99.33)"/><path class="cls-2" d="M331.86,203.73q-.09-18.51-.19-37" transform="translate(-100.13 -99.33)"/><path class="cls-2" d="M333.18,168.58l-34.39-.28" transform="translate(-100.13 -99.33)"/><path class="cls-2" d="M295.15,173l6.66-5.19" transform="translate(-100.13 -99.33)"/><path class="cls-2" d="M150.49,215.83q-16.94,17.35-33.88,34.72" transform="translate(-100.13 -99.33)"/><path class="cls-2" d="M155.59,296.05V346.5" transform="translate(-100.13 -99.33)"/><path class="cls-2" d="M153.89,287.4l-37.56-38.12" transform="translate(-100.13 -99.33)"/><path class="cls-2" d="M168.91,296.9q.15,17.64.29,35.29" transform="translate(-100.13 -99.33)"/><path class="cls-2" d="M201.65,330.91l45.22-45.35" transform="translate(-100.13 -99.33)"/><path class="cls-2" d="M134.33,250.55l9.07-8.5" transform="translate(-100.13 -99.33)"/><path class="cls-2" d="M143.12,258.63,134.33,248" transform="translate(-100.13 -99.33)"/><path class="cls-2" d="M175.57,286.41H151.62" transform="translate(-100.13 -99.33)"/><path class="cls-2" d="M206.9,344.8l44.22-43.37" transform="translate(-100.13 -99.33)"/><path class="cls-2" d="M262.74,314.61l-14.17-13.89" transform="translate(-100.13 -99.33)"/><path class="cls-2" d="M153.75,344.24l55.27-.57" transform="translate(-100.13 -99.33)"/><path class="cls-2" d="M167.21,330.91h36.85" transform="translate(-100.13 -99.33)"/><path class="cls-2" d="M202.36,286.55l13,.57" transform="translate(-100.13 -99.33)"/><path class="cls-2" d="M212.85,304.55q.08-9.63.14-19.27" transform="translate(-100.13 -99.33)"/><path class="cls-2" d="M225,293.21l-.14-8.93" transform="translate(-100.13 -99.33)"/><path class="cls-2" d="M262.88,297.46c-5.15-5.1-11-10.29-16.13-15.39" transform="translate(-100.13 -99.33)"/><path class="cls-2" d="M273.23,284.71v59.1" transform="translate(-100.13 -99.33)"/><path class="cls-2" d="M225.75,340.55l26.36,26.08" transform="translate(-100.13 -99.33)"/><path class="cls-2" d="M215.69,349.2l37,36.56" transform="translate(-100.13 -99.33)"/><path class="cls-2" d="M287,284.57q.13,30.62.28,61.23" transform="translate(-100.13 -99.33)"/><path class="cls-2" d="M248.57,366.63l25.65-25.37" transform="translate(-100.13 -99.33)"/><path class="cls-2" d="M249.13,385.62l40-40.11" transform="translate(-100.13 -99.33)"/><path class="cls-2" d="M285.13,286.69H303.7" transform="translate(-100.13 -99.33)"/><path class="cls-2" d="M295.76,344.09l51.31-.14" transform="translate(-100.13 -99.33)"/><path class="cls-2" d="M296.33,330.63l37.42.14" transform="translate(-100.13 -99.33)"/><path class="cls-2" d="M331.76,298q-.06,17.3-.14,34.58" transform="translate(-100.13 -99.33)"/><path class="cls-2" d="M344.8,292.5l.29,53.86" transform="translate(-100.13 -99.33)"/><path class="cls-2" d="M317,284.14l15.17,15.8" transform="translate(-100.13 -99.33)"/><path class="cls-2" d="M336.37,284.07l9.07,10.49" transform="translate(-100.13 -99.33)"/><path class="cls-2" d="M353.4,260.9l13.32-13" transform="translate(-100.13 -99.33)"/><path class="cls-2" d="M353.5,237.84l13.32,13.42" transform="translate(-100.13 -99.33)"/><path class="cls-2" d="M356.14,220.93l30.05,30.52" transform="translate(-100.13 -99.33)"/><path class="cls-2" d="M356.61,277.81l29.3-29.95" transform="translate(-100.13 -99.33)"/><path class="cls-2" d="M328.74,213.37h21.73" transform="translate(-100.13 -99.33)"/><path class="cls-3" d="M183.69,185.42a.52.52,0,0,1-.21,0c-.62-.27-1-1.51-1.13-2.09-.42-1.83,1.13-2.07,2.55-2,2.36,0,4.73,0,7.09,0a6.4,6.4,0,0,1,2.43.29c3.32,1.33,2.4,5.64,2.38,8.35,0,2.43.88,6.3-.57,8.33-.81,1.13-1.46,2.38-2.29,3.5a5.52,5.52,0,0,1-5.38,2.38c-1.28-.13-1.73.12-1.91,1.36a8.43,8.43,0,0,0,.5,4.74c.37.84,1.28,1.46.46,2-.64.42-2.06.11-2.79.09-.24,0-1.3.13-1.43-.11-.22-.4,1-1.59,1.12-2.1.26-1.31-.09-2.82,0-4.17s-.06-1.53-1.47-1.77-.75-1.25.13-2.17c1.84-1.91,1-6,.94-8.37,0-1.31-.57-3.29-.09-4.52a6.1,6.1,0,0,1,4-3.2c-2.06,4.24-1.6,9.21-1.11,13.9a2,2,0,0,0,.37,1.12,2,2,0,0,0,1.33.44c1.75.11,3.81.09,4.83-1.33a5.21,5.21,0,0,0,.64-3.2l-.13-8.46c0-1.58-.15-3.38-1.38-4.37-1.86-1.51-6.26-1.24-7.78.64C184.47,185,184.11,185.43,183.69,185.42Z" transform="translate(-100.13 -99.33)"/><path class="cls-3" d="M211.86,186.05c.38-.26-.1-2-.06-2.6a4,4,0,0,0,0-1.42c-.25-.87-1.05-.92-1.8-.84a54.11,54.11,0,0,1-5.83.22c-1.64,0-3.93-.8-3.83,1.54.33,8.23-.26,16.54-.11,24.79a1.88,1.88,0,0,0,.15.88c.5,1,2.6.29,3.46.27,1.6,0,3.21,0,4.81.16a6.84,6.84,0,0,0,1.75,0c1.9-.35,2.06-2.45,2-4-.06-1,.06-2.83-1.23-1.6-1.06,1-2,2.15-3.4,2.58s-2.42.07-3.74.07c-1.64-.46-.88-2.32-.84-3.68.06-2.08.1-4.2,0-6.28-.06-1.8,2.78-1.16,3.93-1.21,2-.08,2.78,1.22,3.92,2.54a24.32,24.32,0,0,0,.16-4.35c0-.23.08-3.35-.24-3.17-.9.48-.76,1.48-1.17,2.26a2.54,2.54,0,0,1-2.08,1.2c-.88.15-4.21.52-4.27-1-.08-2.16-.25-4.33-.27-6.49A1.75,1.75,0,0,1,205,184c1.51-.08,3.48-.35,4.83.49C210.19,184.72,211.41,186.37,211.86,186.05Z" transform="translate(-100.13 -99.33)"/><path class="cls-3" d="M228.06,202.92a6,6,0,0,1-.59,3,5.4,5.4,0,0,1-3.46,2.75c-3.34.79-7.4-.91-8.44-4.31-1-3.25-.42-7.23-.42-10.59a37,37,0,0,1-.13-4.59c.18-1.59,1.22-2.79,2.07-4.1,1-1.51,2.15-3.12,4-3.59a12.61,12.61,0,0,1,3.18-.3c.72,0,2.63-.21,3.22.19,2,1.32-4.46,8.36-3.5,10.52a2.33,2.33,0,0,0,1.56,1.26,1.9,1.9,0,0,1-1.92.54c-1.36-.3-1.58-1.68-1.3-2.89.45-1.92,1.82-3.95,1.11-6a2.47,2.47,0,0,0-3.32-1.44,3.48,3.48,0,0,0-1.93,2.59c-.41,1.93.07,3.91.07,5.85l0,6.05c0,1.55-.5,3.95.3,5.35,1.09,1.91,4,3.54,6.14,2.57C225.9,205.23,226.9,203.15,228.06,202.92Z" transform="translate(-100.13 -99.33)"/><path class="cls-3" d="M238.5,181.22l-6.3-.05a3.34,3.34,0,0,0-1.26.16,1.12,1.12,0,0,0-.76.93c0,.89,1,1,1.45,1.48a2.26,2.26,0,0,1,.58,2.16,5,5,0,0,1-.94,1.95c-.19.26-.4.6-.23.87a.67.67,0,0,0,.58.22,2.6,2.6,0,0,0,2.42-1.76,7.84,7.84,0,0,0,.17-2,2.51,2.51,0,0,1,.69-1.84c1.16-1,1.92.36,1.93,1.38,0,6.23,0,12.46,0,18.69a14,14,0,0,1-.29,3.48c-.31,1.21-.81,2.15.61,2.49a6.74,6.74,0,0,0,3.87-.37.75.75,0,0,0,.35-.22c.23-.32-.06-.73-.29-1a5.72,5.72,0,0,1-.73-3.22c-.06-3.34.15-6.68.18-10s-.63-6.57-.47-9.86a1.81,1.81,0,0,1,.29-1.05c.4-.53,1.19-.52,1.85-.46,1.75.16.88,2.53,1.23,3.77a3.16,3.16,0,0,0,2.08,2.28.63.63,0,0,0,.43,0c.43-.21.1-.86-.2-1.24a3.68,3.68,0,0,1-.07-4.33c.31-.41.72-.83.68-1.33-.07-.8-1.12-1-1.92-1Z" transform="translate(-100.13 -99.33)"/><path class="cls-3" d="M252.77,186.31c-.53-.41-1.46-.07-1.94.48-1,1.13-1.14,2.76-1.24,4.27l-.47,7.4a19,19,0,0,0,.09,4.58,6.84,6.84,0,0,0,11.33,3.67,9.33,9.33,0,0,0,2.55-5.11,43,43,0,0,0,.21-11.67c-.14-1.66,0-4.08-.67-5.61-1-2.32-3.77-2.94-6.07-2.94-1.95,0-5.63.27-6.89,2a1.49,1.49,0,0,0,0,1.81,15.5,15.5,0,0,1,3.79-1.75,5.2,5.2,0,0,1,4,.47c1.79,1.15,2.3,3.5,2.54,5.61.55,4.81,1,11-.79,15.57-.88,2.25-3.41,2.07-4.88.47a9.1,9.1,0,0,1-1.95-4.46,27.36,27.36,0,0,1,.54-13.18,1.79,1.79,0,0,0,0-1.45A.7.7,0,0,0,252.77,186.31Z" transform="translate(-100.13 -99.33)"/><path class="cls-3" d="M267.8,184.71a.69.69,0,0,1-.59-.36,1.14,1.14,0,0,1-.1-.63,2.8,2.8,0,0,1,.52-1.91,2.88,2.88,0,0,1,2.1-.64,60.3,60.3,0,0,1,9.11.43,1.51,1.51,0,0,1,.86.3,1.5,1.5,0,0,1,.38.8,34.53,34.53,0,0,1,.81,11,16.77,16.77,0,0,1-1.4,5.85,8.36,8.36,0,0,1-4.18,4.19c-1.41.58-3.19.8-3.91,2.14a4.38,4.38,0,0,0,0,3.07,4.69,4.69,0,0,1,.07,3.07,1.81,1.81,0,0,1-2.69.67c-1-.91-.52-3.13-.41-4.27.15-1.46.13-3.13-.92-4.15-.43-.42-1.07-.85-.93-1.44a1.74,1.74,0,0,1,.58-.72,5.59,5.59,0,0,0,1.32-4.1,49.89,49.89,0,0,1,0-6,6.35,6.35,0,0,1,2.95-4.95,92.52,92.52,0,0,0-.28,12.12,2.13,2.13,0,0,0,.4,1.41,2,2,0,0,0,1,.46,8.86,8.86,0,0,0,4-.14,1,1,0,0,0,.62-.34,1.07,1.07,0,0,0,.15-.61c.2-4.29.28-8.6.23-12.9a4.44,4.44,0,0,0-.29-1.85c-.57-1.24-2.1-1.7-3.47-1.75a10.31,10.31,0,0,0-4.67.93A2.81,2.81,0,0,1,267.8,184.71Z" transform="translate(-100.13 -99.33)"/><path class="cls-3" d="M285.52,185.68c-.71.08-1.21-1.16-1.38-1.67-.59-1.78-.23-2.68,1.69-2.68h6.81a11.53,11.53,0,0,1,3.1.29c3.85,1.07,3.07,5.55,2.92,8.59-.18,3.52-.2,7-.38,10.55a32.48,32.48,0,0,0-.34,3.81,3.67,3.67,0,0,0,.5,1.83c.76,1.2.65,1.81-1,1.76-.75,0-2.45.35-2.82-.57-.15-.4.46-1.67.55-2.11a19.27,19.27,0,0,0,.31-2.52c.21-3.3-.26-6.6-.05-9.9a3.07,3.07,0,0,0-.55-2.53,2.89,2.89,0,0,0-2-.49h-3.1c-.45,0-1,0-1.21.41a1.32,1.32,0,0,0-.15.73c0,2.95-.08,5.89-.08,8.83,0,1.47,0,2.94.08,4.4,0,1.08.63,3-.49,3.6-.84.49-3.23,1.77-3.4.17-.12-1.08,1-2.07,1.11-3.13.23-2.69-.11-5.53-.14-8.24,0-1.49,0-3,0-4.46.05-1.3-.13-2.91.66-4a4.82,4.82,0,0,1,1.69-1.31,21.34,21.34,0,0,1,1.87-1.15c.45-.19-.05.62-.1.73-.23.53-.85,1.76-.11,2.16a1.51,1.51,0,0,0,.7.14c.93,0,4.06.55,4.64-.44a1.42,1.42,0,0,0,.16-.62c.7-5.39-6-5.37-9-2.53a1.26,1.26,0,0,1-.56.36Z" transform="translate(-100.13 -99.33)"/><path class="cls-3" d="M303.06,181.14c.24-.4,1-.13,1.37-.09a11.44,11.44,0,0,0,2.19.09c.88,0,1.26.35,1.47,1.17a8.84,8.84,0,0,1,.07,2.57c0,.87-.1,1.77-.07,2.64s1,.75,1.7.68a17,17,0,0,1,3.71.11c.6.06,1.07,0,1.14-.7a4.76,4.76,0,0,0,0-.86c0-.54,0-1-.07-1.58a10,10,0,0,0,0-1.55,1.63,1.63,0,0,0-.28-.75c-.21-.24-.39-.24-.57-.53-.06-.09-.25-.39-.14-.6.26-.52,1.15-.39,1.62-.36,1,.07,2,.19,3,.29.58.06.4.45.19.81a1.21,1.21,0,0,0-.07.75,10.74,10.74,0,0,1-.15,1.1c0,.52,0,1,0,1.57q0,1.57,0,3.15c.07,2.76.1,5.52,0,8.29s-.25,5.51-.07,8.26a2.79,2.79,0,0,0,.24,1.17,9.2,9.2,0,0,0,.84,1,1.1,1.1,0,0,1,.24.42c.13.58-.72.78-1.12.85a4.4,4.4,0,0,1-1.24,0,1.85,1.85,0,0,1-.93-.3c-.57-.24-.66-.54-.95-1a4.39,4.39,0,0,1-.59-.93,6.25,6.25,0,0,1-.21-2.05c0-1.61,0-3,0-4.63s0-3.23,0-4.87c0-.81,0-1.78,0-2.59,0-.64.27-2.13-.16-2.65s-2.06-.29-2.71-.26c-1,.05-2.08.15-3.12.22s-.8,1.08-.81,1.85c0,2.5,0,5,0,7.49a37,37,0,0,0,.19,4.93,5,5,0,0,0,.61,2.07c.26.41.94.75,1,1.27a.66.66,0,0,1-.43.66,2,2,0,0,1-.59.13,20.74,20.74,0,0,1-3.86,0c-.29,0-1.1-.18-1.14-.56-.07-.53,1.37-1.16,1.58-1.66a2,2,0,0,0,.09-.77c0-1-.05-2-.07-2.94-.05-3.1-.21-6.19-.25-9.29a18.27,18.27,0,0,0,.06-2.45c-.06-.4-.1-.62-.28-.75s-.63.13-1.17-.07a.84.84,0,0,1-.5-.39.88.88,0,0,1,.46-1.11c.52-.32.95-.51,1.08-1.15a12,12,0,0,0,.06-2.24,5.23,5.23,0,0,0-.22-2.08.27.27,0,0,1,.1.31,4,4,0,0,1-.79-.48,1.14,1.14,0,0,1-.19-.19,1.27,1.27,0,0,1-.13-.32A2,2,0,0,1,303.06,181.14Z" transform="translate(-100.13 -99.33)"/><path class="cls-3" d="M170.38,270.43a11.3,11.3,0,0,0,3.22-2.86c.42-.53.79-1.09,1.19-1.63.17-.24,1-1.11.84-1.45a7.72,7.72,0,0,1-1.24,7.9c-1.93,2.48-5.07,3.76-8.1,4.22l-.48.07c-4.79.58-10.3-.42-13.05-4.79-1.68-2.67-1.66-6.06-1.51-9.1.19-3.78,0-7.61,0-11.39l0-9a21.1,21.1,0,0,1,.61-6.39,17.46,17.46,0,0,1,3-5.43,35,35,0,0,1,2.4-2.75A11.24,11.24,0,0,1,160,225.4a9.86,9.86,0,0,1,4.25-.61l10.37.11a.76.76,0,0,1,.42.09c.2.13.22.42.21.66l0,9.35c-1.49-.09-2.47-1.36-3.34-2.42-1-1.25-2-2.32-3.67-2.57a20.56,20.56,0,0,0-3.14,0c-1.76,0-5-.74-6.31.8a3.8,3.8,0,0,0-.59,2.5l0,3.63,0,4.21c0,1.18-.36,2.87.42,3.87a3,3,0,0,0,2.07.79,15.72,15.72,0,0,0,6.62,0,7.37,7.37,0,0,0,3.63-2.12c.55-.59.94-1.37,1.46-2,.25-.31,1-1.24,1.5-1,.64.31.3,2.29.26,2.83-.11,1.69,0,3.4,0,5.08,0,1.38,0,2.75,0,4.12A18.16,18.16,0,0,1,174,256a5.08,5.08,0,0,1-2-2.53c-.33-.75-.41-2.08-1.33-2.37a12.72,12.72,0,0,0-3.15-.11c-1.56-.05-3.19-.08-4.77-.15-1.1,0-3-.52-3.78.6a3.58,3.58,0,0,0-.38,2q0,3.65.08,7.29l0,3.65c0,2.45.19,4.58,2.54,5.91A9.57,9.57,0,0,0,170.38,270.43Z" transform="translate(-100.13 -99.33)"/><path class="cls-3" d="M184.45,232.08c-1-.06-1.71-1.71-2.32-3.2a5.22,5.22,0,0,1-.49-3.2,2.26,2.26,0,0,1,.7-1.39c.31-.25.66-.34,2-.42s1.87-.08,2.18-.07c2,.1,6.45.13,9.44,0,2-.08,3.92,0,5.89,0a9.11,9.11,0,0,1,6.92,2.95c2.28,2.64,1.7,5.78,1.68,9,0,2.31,0,4.63,0,6.94,0,5.67,0,8.5.15,9.19a6.14,6.14,0,0,1-.08,3.13c-.65,2.07-2.43,4.21-3.67,6-1.5,2.17-2.88,4.58-5,6.21-1.83,1.4-4.23,1.64-6.46,1.57-1.47-.05-4.25-.93-5,1-.51,1.3-.17,3-.17,4.34q0,1.71-.06,3.42a5.22,5.22,0,0,0,.17,2.81,13.34,13.34,0,0,0,2.45,2.81,1.28,1.28,0,0,1,.43.67c.08.59-.63.56-1,.58l-7.67.32a1.11,1.11,0,0,1-.65-.11c-1.06-.68,1.9-2.75,2.13-3.35.56-1.47.09-3.34,0-4.86,0-1-.08-2.09-.06-3.14a26.52,26.52,0,0,0,.31-3.13c-.19-1.55-1.92-1.37-3.11-1.31-.43,0-1.71.28-2.07,0s1-2.58,1.2-2.95a5.63,5.63,0,0,1,1.86-2c1.32-1,1.06-2.19,1.07-3.63,0-5.77,0-11.55-.24-17.31-.07-1.82-.34-3.5.81-5a14.18,14.18,0,0,1,3.31-3.25c.52-.36,3.29-2.32,3.93-1.6.33.37-.61,1.5-1.26,2.71-1.74,3.22-1.3,7.71-1.38,11.24-.05,2.73-.06,5.47,0,8.2,0,1.33.06,2.66.1,4,0,1-.36,2.68.69,3.29a3.42,3.42,0,0,0,1.48.34l3.41.25c2.36.18,5.41.6,7.16-1.4s1.47-4.76,1.45-7.13c0-5.21-.15-10.31,0-15.52.09-2.74-.08-5.71-1.4-8.17-1.13-2.11-3.4-2.88-5.64-3.16-2.09-.25-4.92-.65-6.93.07A12.85,12.85,0,0,0,187,230C185.57,231.25,185.24,232.14,184.45,232.08Z" transform="translate(-100.13 -99.33)"/><path class="cls-3" d="M238.59,233.65c.21-.28-.06-1.31-.13-1.57a9.92,9.92,0,0,1-.29-2.71c.11-3.06.05-5.73-3.71-5.39a111.64,111.64,0,0,1-11.85.42c-1.72,0-4.16-.64-5.81-.23s-1.63,1.83-1.58,3.14c.33,7.61-.08,15.35-.11,23L215,273.87v.23c0,2.64,1.33,2.69,3.58,2.45,5.18-.55,10.27.36,15.43.28a5.23,5.23,0,0,0,4.24-1.79,5.48,5.48,0,0,0,.82-3.31c0-1.88,0-3.76,0-5.65a1.08,1.08,0,0,0-.09-.54c-.86-1.56-5.71,3.88-6.52,4.38a11.19,11.19,0,0,1-6.2,1.38c-1,0-2.08-.15-3.13-.18-.58,0-1.3.17-1.82-.21-1.06-.76-.62-2.47-.43-5.63a52.32,52.32,0,0,0,0-6.17c-.1-1.66,0-3.31.09-5,0-1.23-.38-2.94.9-3.68a3.91,3.91,0,0,1,2.14-.38c1.78.06,3.57,0,5.35,0,1.1,0,3.16-.39,4.07.33a2.89,2.89,0,0,1,.68,1c.4.78,1.18,2.54,2.07,2.86s.66-.06.69-.83,0-1.72,0-2.58c0-3.21-.08-6.42-.13-9.63a.88.88,0,0,0-.13-.56c-.7-.87-2.31,2.75-2.46,3.2-.31.94-.57,2.06-1.46,2.48a3.2,3.2,0,0,1-1.19.19l-8.83.27a1.42,1.42,0,0,1-1.07-.27,1.35,1.35,0,0,1-.29-.85c-.24-2.74,0-5.51-.16-8.26-.09-1.85.07-3.66,0-5.55s.81-2.52,2.58-2.62c2.63-.15,5.29-.16,7.92-.11a4.73,4.73,0,0,1,1.84.28c1.74.78,3.11,2.94,4.69,4.08C238.37,233.75,238.51,233.75,238.59,233.65Z" transform="translate(-100.13 -99.33)"/><path class="cls-3" d="M283.21,232.46a1.45,1.45,0,0,1-.29,0,1.66,1.66,0,0,1-1.15-.81,9.36,9.36,0,0,1-1.72-4.7,2.73,2.73,0,0,1,1-2.64,3,3,0,0,1,1.63-.28l16.45.2c2.5,0,5.2.12,7.16,1.66,2.81,2.2,3,6.32,2.88,9.89-.22,9-.44,17.93-1.28,26.85-.39,4.1-.79,8.68,1.79,11.89a1.36,1.36,0,0,1,.3.52c.13.64-.75,1-1.41,1-2,.13-4,.18-6.06.14a2,2,0,0,1-.87-.16,1.45,1.45,0,0,1-.55-1.66,8.63,8.63,0,0,1,.85-1.69,10.79,10.79,0,0,0,.8-5q0-8-.05-16c0-2.72.84-6-.33-8.59-1.63-3.63-7.83-2.16-11.08-2.19a2.63,2.63,0,0,0-1.84.46,2.58,2.58,0,0,0-.54,2l.26,30.42a1.66,1.66,0,0,1-1.39,2l-4.54,1.55c-.65.22-1.46.4-1.93-.1-.7-.74.21-1.85.85-2.64,1.52-1.91,1.55-4.56,1.5-7l-.39-22.16c-.05-2.46-.06-5.05,1.1-7.22,1.49-2.79,4.58-4.29,7.56-5.37a8.14,8.14,0,0,0-1.37,2.92,2.83,2.83,0,0,0,1,2.88,3.76,3.76,0,0,0,1.69.48,20.82,20.82,0,0,0,6.63-.41,4.15,4.15,0,0,0,1.15-.41,3.21,3.21,0,0,0,1.33-2.13,6.91,6.91,0,0,0-3.24-7,10.31,10.31,0,0,0-7.91-1A21,21,0,0,0,284,232,2.56,2.56,0,0,1,283.21,232.46Z" transform="translate(-100.13 -99.33)"/><path class="cls-3" d="M319.19,224.13c.42-.74,1.81-.24,2.43-.16a19.76,19.76,0,0,0,3.92.15c1.56-.09,2.25.66,2.63,2.21a18.15,18.15,0,0,1,.12,4.83c-.05,1.64-.18,3.34-.13,5,0,1.86,1.85,1.42,3,1.27a29.25,29.25,0,0,1,6.61.22c1.07.11,1.9,0,2-1.31a10.68,10.68,0,0,0,0-1.62c-.05-1-.08-1.95-.11-3a21.73,21.73,0,0,0,0-2.91,3.06,3.06,0,0,0-.51-1.4c-.36-.45-.68-.46-1-1-.1-.17-.45-.73-.25-1.13.46-1,2.06-.74,2.89-.68,1.77.13,3.54.36,5.3.55,1,.1.72.85.34,1.53a2.39,2.39,0,0,0-.13,1.4c.05.72-.25,1.34-.27,2.07,0,1,0,2,0,3q0,3,.06,5.92c.11,5.19.17,10.39,0,15.59s-.45,10.37-.12,15.53a5.72,5.72,0,0,0,.42,2.21,15.84,15.84,0,0,0,1.51,2,2.09,2.09,0,0,1,.42.79c.23,1.09-1.28,1.48-2,1.62a7.94,7.94,0,0,1-2.21.06,3.2,3.2,0,0,1-1.66-.55c-1-.47-1.17-1-1.69-1.82a9.24,9.24,0,0,1-1.05-1.74,12.59,12.59,0,0,1-.38-3.86c0-3,0-5.62,0-8.71s-.05-6.08,0-9.16c0-1.53.06-3.35,0-4.88,0-1.2.47-4-.3-5s-3.67-.55-4.83-.49c-1.86.1-3.72.28-5.57.42s-1.43,2-1.45,3.48c0,4.69,0,9.39-.05,14.08a69.9,69.9,0,0,0,.35,9.27,9.71,9.71,0,0,0,1.08,3.9c.46.78,1.67,1.41,1.75,2.4a1.25,1.25,0,0,1-.78,1.24,3.29,3.29,0,0,1-1,.24,36,36,0,0,1-6.89,0c-.51-.05-2-.35-2-1.06-.12-1,2.45-2.18,2.82-3.13a3.68,3.68,0,0,0,.16-1.44c0-1.85-.08-3.69-.11-5.53-.11-5.83-.38-11.65-.46-17.48a35.54,35.54,0,0,0,.12-4.61c-.11-.74-.18-1.17-.51-1.4-.54-.39-1.12.24-2.08-.13a1.53,1.53,0,0,1-.89-.74,1.71,1.71,0,0,1,.82-2.1c.93-.6,1.69-.94,1.92-2.16a23.65,23.65,0,0,0,.1-4.21,10.33,10.33,0,0,0-.38-3.91.51.51,0,0,1,.17.58,6.68,6.68,0,0,1-1.4-.9,1.65,1.65,0,0,1-.34-.36,1.69,1.69,0,0,1-.23-.59A3.76,3.76,0,0,1,319.19,224.13Z" transform="translate(-100.13 -99.33)"/><path class="cls-3" d="M248.81,233.33a.87.87,0,0,1-.32-.06,2.63,2.63,0,0,1-1.14-1.1,13.38,13.38,0,0,1-2.43-6.14,1.79,1.79,0,0,1,0-.65c.39-1.19,2.26-.86,3.18-.77,6.54.65,13.47-.09,20-.18,4.81-.07,6.33,5.7,5.49,9.65a10.28,10.28,0,0,1-2,4.27c-.58.73-2.92,2-3.15,2.75-.11.39,2.79,2.36,3.17,2.78a17.53,17.53,0,0,1,3,4.68c2.39,5.43,1.71,11.38-.75,16.64-1.8,3.83-5.53,9.71-9.91,10.77-2.87.69-6,.47-8.9.54-3.35.07-6.7.1-10,.07a.64.64,0,0,1-.47-.13c-.18-.18-.1-.48,0-.72,1-2,3-3.42,3.59-5.65,1.07-3.9.13-9.05.08-13.07l-.17-14.13a10.11,10.11,0,0,1,.42-3.68,8.62,8.62,0,0,1,3.57-3.85,31.33,31.33,0,0,1,5.23-2.81c1.38,1.61-1.41,4-2,5.43-1.46,3.5-.87,7.48-.58,11.13.31,3.84.54,7.71.77,11.55.17,3-.36,6.25-2.64,8.16-.66.55-1.54,1.35-1.1,2.09a1.68,1.68,0,0,0,1.33.56,30.69,30.69,0,0,0,7.54,0,10.28,10.28,0,0,0,6.52-3.48c1.8-2.28,2.15-5.37,2.13-8.27A20.28,20.28,0,0,0,268,252a10.25,10.25,0,0,0-5.22-5.64,6.9,6.9,0,0,0-7.36,1.14,7.84,7.84,0,0,1-.8-2.39c.1-1.08.23-.93,1-1.45,1.89-1.28,4.48-2,6.57-2.94a13.11,13.11,0,0,0,4.47-2.8c3.89-4.28-.81-8-5.08-8.27-3-.17-7.58-.7-10,1.5C251,231.75,249.82,233.33,248.81,233.33Z" transform="translate(-100.13 -99.33)"/></svg>
