<?xml version="1.0"?>
<svg xmlns="http://www.w3.org/2000/svg" id="icons" enable-background="new 0 0 64 64" height="512px" viewBox="0 0 64 64" width="512px"><g><path d="m23.026 48.5h-.011c-.552 0-.994.447-.994 1s.452 1 1.005 1c.552 0 1-.447 1-1s-.448-1-1-1z" data-original="#000000" class="active-path" data-old_color="#000000" fill="#F2F2F2"/><path d="m63.004 57.498v-2.99c0-7.346-5.311-13.462-12.291-14.742.182-.387.291-.813.291-1.268 0-1.654-1.346-3-3-3s-3 1.346-3 3c0 .454.109.881.291 1.268-3.324.609-6.26 2.318-8.433 4.734h-5.866v-4.154c4.782-2.77 8.015-7.931 8.015-13.844v-12c0-4.072-3.06-7.436-7-7.931v-4.071c0-.552-.447-1-1-1h-10c-7.72 0-14 6.28-14 14v11.001c0 5.901 3.22 11.053 7.985 13.827v4.172h-5.998c-4.964 0-9.002 4.038-9.002 9.002l.001 7.998c0 .553.448 1 1 1 .553 0 1-.448 1-1l-.001-7.998c0-3.86 3.14-7.001 7-7.002v14.998c0 .553.447 1 1 1s1-.447 1-1v-14.998h4.402l6.598 12.251v2.747c0 .553.447 1 1 1s1-.447 1-1v-2.747l6.598-12.251h4.748c-1.473 2.32-2.338 5.063-2.338 8.008v2.99h-.003c-.553 0-1 .447-1 1 0 2.206 1.794 4 4 4h24.003c2.206 0 4-1.794 4-4 0-.553-.447-1-1-1zm-53.993-41.998c0-6.617 5.383-12 12-12h9v4.002c0 .552.447 1 1 1 3.309 0 6 2.691 6 6v3.584l-2.293-2.293c-.02-.019-.045-.026-.065-.043-.052-.044-.106-.078-.166-.11-.056-.031-.109-.061-.169-.08-.061-.02-.122-.028-.186-.036-.063-.008-.125-.015-.188-.01-.062.004-.12.02-.181.035-.067.018-.131.037-.193.068-.023.012-.05.012-.072.025-.048.028-4.851 2.858-10.486 2.858s-10.438-2.83-10.486-2.858c-.022-.014-.049-.014-.072-.025-.063-.031-.126-.051-.193-.068-.061-.016-.119-.031-.181-.035-.063-.004-.125.002-.188.01s-.125.016-.186.036c-.06.02-.113.049-.169.08-.06.032-.114.065-.166.11-.021.018-.046.024-.065.043l-2.293 2.293v-2.586zm13.985 40.888-5.111-9.491 2.916.582c.065.014.132.02.196.02.142 0 .274-.039.399-.095.016-.007.032-.003.047-.011l1.553-.776 1.553.776c.015.008.031.004.047.011.125.056.258.095.399.095.064 0 .131-.006.196-.02l2.916-.582zm6-11.708-3.859.771-1.693-.847c-.022-.011-.047-.01-.069-.019-.063-.026-.127-.039-.193-.052-.063-.012-.122-.024-.185-.024s-.122.013-.185.024c-.066.013-.131.025-.193.052-.022.009-.047.008-.069.019l-1.693.847-3.859-.771v-3.361c1.858.758 3.887 1.184 6.015 1.184 2.117 0 4.135-.423 5.985-1.173v3.35zm-5.985-4.178c-7.72 0-14-6.28-14-14v-5.587l3.177-3.177c1.613.837 5.858 2.763 10.823 2.763s9.21-1.926 10.823-2.763l3.177 3.177v5.587c0 7.72-6.281 14-14 14zm24.993-3.004c.552 0 1 .448 1 1s-.448 1-1 1-1-.448-1-1 .448-1 1-1zm-13 17.01c0-7.168 5.832-13 13-13s13 5.832 13 13v2.99h-26zm25 5.99h-24.003c-.736 0-1.375-.405-1.722-1h27.446c-.346.595-.985 1-1.721 1z" data-original="#000000" class="active-path" data-old_color="#000000" fill="#F2F2F2"/><path d="m48.004 42.508c-.553 0-1 .447-1 1s.447 1 1 1c5.514 0 10 4.486 10 10 0 .553.447 1 1 1s1-.447 1-1c0-6.617-5.383-12-12-12z" data-original="#000000" class="active-path" data-old_color="#000000" fill="#F2F2F2"/></g> </svg>
